<?xml version="1.0" encoding="utf-8"?>
<!-- Svg Vector Icons : http://www.sfont.cn -->
<!DOCTYPE svg PUBLIC "-//W3C//DTD SVG 1.1//EN" "http://www.w3.org/Graphics/SVG/1.1/DTD/svg11.dtd">
<svg version="1.1" xmlns="http://www.w3.org/2000/svg" xmlns:xlink="http://www.w3.org/1999/xlink" x="0px" y="0px" viewBox="0 0 1000 1000" enable-background="new 0 0 1000 1000" xml:space="preserve">
<metadata> Svg Vector Icons : http://www.sfont.cn </metadata>
<g><g><path d="M915.7,10H84.4C43.3,10,10,43.3,10,84.3v831.3c0,41,33.3,74.4,74.4,74.4h831.3c41,0,74.4-33.3,74.4-74.4V84.3C990,43.3,956.7,10,915.7,10z M795.4,380L490.6,684.9c-13.9,13.9-32.9,21.8-52.6,21.8c-19.7,0-38.6-7.8-52.6-21.8L204.7,504.1c-29-29-29-76.1,0-105.1c29-29,76.1-29,105.1,0L438,527.1l252.2-252.2c29-29,76.1-29,105.1,0C824.5,303.9,824.5,351,795.4,380z"/></g><g></g><g></g><g></g><g></g><g></g><g></g><g></g><g></g><g></g><g></g><g></g><g></g><g></g><g></g><g></g></g>
</svg>