<?xml version="1.0" encoding="utf-8"?>
<!-- Svg Vector Icons : http://www.sfont.cn -->
<!DOCTYPE svg PUBLIC "-//W3C//DTD SVG 1.1//EN" "http://www.w3.org/Graphics/SVG/1.1/DTD/svg11.dtd">
<svg version="1.1" xmlns="http://www.w3.org/2000/svg" xmlns:xlink="http://www.w3.org/1999/xlink" x="0px" y="0px" viewBox="0 0 1000 1000" enable-background="new 0 0 1000 1000" xml:space="preserve">
<metadata> Svg Vector Icons : http://www.sfont.cn </metadata>
<g><g transform="translate(0.000000,511.000000) scale(0.100000,-0.100000)"><path d="M1133.2,4006C77.9,2950.7,69.2,2942,112.9,2791.2c15.3-50.3,367-417.3,1324-1374.3L2743.4,110.5L1439-1193.9C300.8-2334.3,134.7-2511.3,121.6-2581.2c-8.7-43.7-8.7-102.7,0-131.1c24-80.8,1951-2001.3,2036.2-2029.7c159.5-52.4,128.9-78.7,1520.6,1308.7L4982.8-2129l1317.4-1315.3c887.1-889.2,1334.9-1319.6,1376.4-1328.4c152.9-39.3,148.6-41.5,1199.5,1009.4C9927-2712.3,9924.9-2712.3,9889.9-2561.6c-10.9,41.5-432.6,478.5-1330.5,1378.6L7244.1,132.3L8524.4,1417c705.7,705.7,1297.8,1306.5,1317.5,1337.1c19.6,28.4,34.9,98.3,34.9,152.9v98.3l-1000.6,998.5l-998.5,1000.6h-93.9c-52.5,0-115.8-10.9-142-24s-631.4-605.2-1341.5-1315.2L5004.7,2371.8L3687.2,3689.2L2372,5004.5h-120.2h-118L1133.2,4006z"/></g></g>
</svg>