<?xml version="1.0" encoding="utf-8"?>
<!-- Svg Vector Icons : http://www.sfont.cn -->
<!DOCTYPE svg PUBLIC "-//W3C//DTD SVG 1.1//EN" "http://www.w3.org/Graphics/SVG/1.1/DTD/svg11.dtd">
<svg version="1.1" xmlns="http://www.w3.org/2000/svg" xmlns:xlink="http://www.w3.org/1999/xlink" x="0px" y="0px" viewBox="0 0 1000 1000" enable-background="new 0 0 1000 1000" xml:space="preserve">
<metadata> Svg Vector Icons : http://www.sfont.cn </metadata>
<g><path d="M826.7,540.8v-81.7c0-11.1-4-20.6-12.1-28.7c-8.1-8.1-17.7-12.1-28.7-12.1H214.2c-11.1,0-20.6,4-28.7,12.1c-8.1,8.1-12.1,17.7-12.1,28.7v81.7c0,11.1,4,20.6,12.1,28.7c8.1,8.1,17.7,12.1,28.7,12.1h571.7c11.1,0,20.6-4,28.7-12.1C822.6,561.5,826.7,551.9,826.7,540.8z M990,193.7v612.5c0,50.6-18,93.9-53.9,129.8c-35.9,36-79.2,53.9-129.9,53.9H193.7c-50.6,0-93.9-18-129.8-53.9C27.9,900.2,10,856.9,10,806.2V193.7c0-50.6,18-93.9,53.9-129.9C99.8,27.9,143.1,10,193.7,10h612.5c50.6,0,93.9,18,129.9,53.9C972.1,99.8,990,143.1,990,193.7z"/></g>
</svg>